<?xml version="1.0" encoding="UTF-8"?>
<svg width="147px" height="125px" viewBox="0 0 147 125" version="1.1" xmlns="http://www.w3.org/2000/svg" xmlns:xlink="http://www.w3.org/1999/xlink">
    <title>love</title>
    <g id="love" stroke="none" stroke-width="1" fill="none" fill-rule="evenodd">
        <g transform="translate(1.000000, 0.000000)" fill="#E43426" fill-rule="nonzero" id="路径_31">
            <path d="M138.97811,40.3927127 C138.97811,40.3927127 119.51311,63.8347127 116.82511,61.6927127 L116.30411,61.3047127 C113.51611,58.5207127 130.55611,34.0817127 130.55611,34.0817127 C132.190934,31.9024999 135.282765,31.4610656 137.46211,33.0957127 L137.99111,33.4847127 C139.038119,34.2698371 139.730325,35.4387552 139.915427,36.7342807 C140.100529,38.0298062 139.763362,39.3457988 138.97811,40.3927127 L138.97811,40.3927127 Z M81.54711,34.6927127 C82.40411,25.1527127 81.98311,15.4397127 81.46811,5.89271267 C81.22911,0.666712673 73.16811,0.862712673 73.16811,6.07671267 C73.0706608,16.5494715 74.1395792,27.0005221 76.35511,37.2367127 C78.25011,45.4077127 80.96311,41.2087127 81.54711,34.6957127 L81.54711,34.6927127 Z M43.48211,23.3327127 C45.04911,26.7527127 54.84511,51.8737127 60.19311,50.2327127 C60.54111,50.0077127 60.69311,49.4387127 60.69311,48.5927127 C60.69311,40.1067127 44.94111,3.70871267 44.94111,3.70871267 C41.88611,-3.32628733 33.87511,0.266712673 37.31211,9.28371267 C39.32711,14.5627127 41.35211,18.6877127 43.48211,23.3367127 L43.48211,23.3327127 Z M40.15911,61.4907127 C40.420894,61.5023821 40.6770633,61.4124541 40.87411,61.2397127 C43.70611,56.9777127 17.79711,28.1397127 17.79711,28.1397127 C14.30611,24.0337127 8.47211005,29.5517127 11.71411,33.3397127 C11.71311,33.3367127 34.75511,61.4937127 40.15911,61.4937127 L40.15911,61.4907127 Z M11.65911,62.3307127 C7.67611005,59.6657127 3.29111005,65.8007127 7.43311005,68.5947127 C7.43311005,68.5947127 27.99011,82.2947127 31.98311,80.5647127 C33.15511,75.8937127 11.66311,62.3367127 11.66311,62.3367127 L11.65911,62.3307127 Z M112.11311,74.0427127 C111.97011,90.2647127 102.59411,103.909713 94.65011,117.180713 C75.75011,115.063713 51.23011,113.965713 41.87711,94.6727127 C30.99911,72.2357127 46.19311,55.5537127 70.65111,67.4967127 C73.83211,52.8127127 81.73511,44.9377127 93.45111,46.2767127 C104.84411,47.5867127 112.23611,60.6167127 112.11711,74.0457127 L112.11311,74.0427127 Z M100.88211,61.1127127 C91.55011,52.5847127 78.33011,57.3857127 75.13211,76.7267127 C49.88411,65.2267127 39.25511,86.2937127 53.46811,99.4437127 C62.96311,108.226713 80.69811,111.208713 93.05411,113.343713 C96.8288676,107.588737 99.8044023,101.347683 101.89911,94.7917127 C104.96811,85.4957127 109.10811,68.6487127 100.88611,61.1157127 L100.88211,61.1127127 Z"></path>
        </g>
    </g>
</svg>