<?xml version="1.0" encoding="UTF-8"?>
<svg width="420px" height="384px" viewBox="0 0 420 384" version="1.1" xmlns="http://www.w3.org/2000/svg" xmlns:xlink="http://www.w3.org/1999/xlink">
    <title>elfbar_logo2</title>
    <defs>
        <linearGradient x1="12.5094769%" y1="18.9633752%" x2="71.8816762%" y2="81.097825%" id="linearGradient-1">
            <stop stop-color="#FF5EA7" offset="0%"></stop>
            <stop stop-color="#C85AFF" offset="60%"></stop>
            <stop stop-color="#5A74FF" offset="100%"></stop>
        </linearGradient>
        <linearGradient x1="20.0154512%" y1="45.2471113%" x2="78.3838072%" y2="55.0214661%" id="linearGradient-2">
            <stop stop-color="#FF5EA7" offset="0%"></stop>
            <stop stop-color="#C85AFF" offset="60%"></stop>
            <stop stop-color="#5A74FF" offset="100%"></stop>
        </linearGradient>
    </defs>
    <g id="elfbar_logo2" stroke="none" stroke-width="1" fill="none" fill-rule="evenodd">
        <g transform="translate(-0.000000, 0.000000)" fill-rule="nonzero" id="形状">
            <path d="M341.581871,147.017611 L341.581871,147.017611 C341.011422,145.409984 339.727913,144.658029 337.93878,144.839535 L335.034679,145.163654 C331.326765,145.578525 311.970416,147.56213 294.714354,145.34516 C288.335704,144.528382 278.132458,142.596636 265.660383,138.110838 C272.363151,132.030377 277.406433,125.379468 280.660581,118.313688 C283.707294,111.714638 285.418639,104.389562 285.600145,97.1422755 C285.729793,92.0989936 285.14638,86.7704876 283.849906,81.3123342 C283.435035,79.5620949 282.799762,77.5266316 282.216349,75.9967928 C281.360677,73.7668584 280.154957,72.7296796 278.391753,72.7167149 L278.378788,72.7167149 C276.589654,72.7167149 275.746947,73.9094705 274.930168,75.9708634 C272.077927,83.0885028 265.05104,92.4360767 259.242839,96.7922276 C253.784686,100.889084 235.841493,106.839897 231.083435,108.512348 C223.149017,111.299766 211.351108,119.091572 206.243003,124.575655 C202.509159,128.581758 199.501341,133.080521 197.530701,137.579284 C196.208298,140.651926 195.378555,143.478238 194.989613,146.213797 C194.989613,146.226762 194.756248,147.989966 195.521167,149.416087 C196.195333,150.647736 197.673313,151.257079 198.114114,151.412656 C200.123648,152.151646 202.133182,152.670235 204.350152,153.188824 C203.922315,153.357366 203.520409,153.538872 203.157396,153.720379 C200.642237,154.964993 198.269691,156.767091 196.091615,159.074814 C194.004293,161.304749 192.474454,163.91066 191.216875,166.179489 C190.931651,166.685114 190.426026,167.164809 189.77779,167.540786 C188.948047,168.033446 187.962727,168.292741 187.094089,168.266811 C185.823545,168.240882 183.814011,168.448317 181.156241,169.459567 C179.937556,168.940977 178.342893,168.655753 176.566725,168.655753 C178.070634,165.557182 179.794944,161.849267 178.913342,159.710086 C178.27807,158.180247 176.80009,157.389399 174.259002,157.233822 C170.032498,156.974527 165.209617,157.013421 158.597602,159.00999 C152.750507,160.773194 147.785013,163.1976 142.975097,165.544217 C138.424475,167.761187 133.718276,170.055945 128.234193,171.819149 C120.416458,174.321342 113.052488,173.945365 111.652297,173.841647 C106.673839,173.491599 101.397192,172.208091 95.4982373,169.926297 C93.7350334,169.252131 89.0547641,166.918479 87.8231143,166.270242 C85.9043335,165.258993 84.36153,165.557182 83.1298802,167.164809 C82.5205377,167.968622 82.014913,169.822579 83.285457,171.391312 C84.9060489,173.400846 99.5302699,185.859956 105.870025,189.451188 C114.686045,194.442611 121.777755,196.879981 128.830571,197.372641 C134.457266,197.761583 139.3709,197.346712 143.441827,196.115062 C142.910273,198.396855 142.625049,200.510107 142.57319,202.519641 C142.482437,206.071978 143.234391,214.654633 145.606938,222.550156 C146.46261,225.389433 148.096167,228.980665 149.820477,232.792297 C151.246597,235.942727 152.724577,239.196876 153.917333,242.347306 C155.602748,246.807175 156.419527,251.318903 156.626962,254.054462 C156.795504,256.323291 158.364237,257.230822 159.764428,257.308611 C161.65728,257.425293 162.772247,256.569621 163.472342,254.456369 C164.250227,252.109752 165.015146,249.296404 165.818959,246.314515 C166.933927,242.19173 168.191506,237.524425 169.773204,233.181239 C172.067962,226.854448 174.570156,221.175894 176.151853,217.908781 C178.083599,219.321937 184.086271,223.729947 186.990372,226.335859 C191.294664,230.212315 197.997431,237.550355 201.640522,245.692208 C205.867026,255.130535 208.848915,263.881731 209.769411,267.732257 C210.002776,268.704612 210.547295,270.973441 212.842053,271.297559 C213.049489,271.323489 213.24396,271.336454 213.425466,271.336454 C215.071987,271.336454 215.90173,270.208522 216.770368,269.015766 C216.925944,268.80833 217.081521,268.600895 217.237098,268.380494 C218.520607,266.708043 227.453309,253.509943 234.73949,236.785435 C241.299646,221.720413 243.049885,206.629462 243.348074,195.505719 C244.177817,165.194169 226.117941,156.32629 225.041868,155.691018 C226.753214,156.131819 228.347876,156.961562 229.773997,158.0506 C239.562372,165.479393 244.774195,174.878826 258.20566,184.330118 C274.048566,195.45386 290.889757,189.658624 295.621885,188.206573 C310.142388,183.759669 321.927332,172.130302 323.249735,170.898652 C329.12276,165.453464 334.554984,159.308179 339.39083,152.605411 L341.037352,150.284724 C341.815236,149.143827 341.957848,148.197402 341.542976,147.017611 L341.581871,147.017611 Z M150.040877,197.567112 C152.439353,186.469299 162.201798,180.622204 167.51734,178.210763 C166.882068,179.675778 162.953753,190.630979 161.216479,205.890472 C159.582922,220.190574 158.818003,234.931478 158.740214,236.409458 C157.093693,232.85712 154.021051,226.01174 152.335635,220.994388 C149.742688,213.3063 148.783298,203.453102 150.053842,197.567112 L150.040877,197.567112 Z M161.696174,168.694647 C156.652892,171.546889 151.103985,173.9324 145.153172,176.266053 C134.49616,180.440697 123.074228,182.100183 113.143242,181.088934 C115.697294,181.140793 120.273846,180.674062 122.77604,180.168438 C133.316369,178.042221 139.578336,174.256519 145.814373,171.196841 C148.225814,170.01705 162.072151,162.769764 168.787884,163.962519 C167.997035,164.934874 165.131828,166.749937 161.696174,168.694647 L161.696174,168.694647 Z M140.550691,182.100183 C146.203316,180.259191 151.817046,177.964433 157.132587,175.371486 C161.009043,173.478635 159.297698,174.658425 157.015904,176.266053 C152.517141,179.507236 148.835157,183.681881 146.384822,188.349186 C143.31218,189.386364 140.421044,190.034601 137.581767,190.33279 L137.581767,190.33279 C127.910075,191.395898 119.586715,189.464153 110.329894,183.928211 C116.099201,184.978354 127.948969,186.210004 140.563656,182.100183 L140.550691,182.100183 Z M184.488178,203.971691 C187.171878,200.536036 189.064729,196.46511 189.985225,192.199712 C190.892757,187.89542 190.750145,183.565198 189.544424,179.675778 C189.025835,177.990362 188.338704,176.460524 187.495996,175.099226 C188.831364,174.878826 191.022404,174.412096 192.396666,173.828682 C197.595525,178.184833 206.074461,184.161576 212.154922,200.069306 C222.837864,228.047204 215.875801,255.960278 214.566363,259.512615 C212.712406,253.587732 210.612119,248.285155 208.174748,243.37152 C205.529942,238.043014 202.522124,233.259027 199.229081,229.149206 C196.558346,225.79134 193.589422,222.731663 190.387132,220.060927 C188.325739,218.362547 181.272923,213.150723 179.367107,211.750532 C181.2081,208.535278 182.841656,206.046049 184.475213,203.971691 L184.488178,203.971691 Z M183.269493,190.773591 C182.582362,194.014775 181.130311,197.126311 179.094848,199.745188 C176.657478,202.843759 174.33679,206.473885 172.003138,210.817071 C168.671201,217.00125 165.689312,223.963312 162.953753,231.975518 C163.524201,221.798202 163.744602,216.353013 165.442982,204.775505 C167.711811,189.308576 170.188075,180.28512 173.429259,175.890075 C174.777591,175.41038 177.253856,174.865861 179.302284,176.227158 C181.532218,177.62735 182.478644,180.025826 182.997233,181.711241 C183.852906,184.47273 183.943659,187.610196 183.269493,190.773591 L183.269493,190.773591 Z M258.387167,135.56975 C254.199557,134.09177 250.828726,133.015697 247.730155,132.172989 C251.87887,129.528183 259.346557,124.653443 266.827209,114.139043 C272.700234,105.893472 276.82302,96.1439909 278.534365,90.6469433 C279.169637,97.557147 278.352858,108.045618 273.335506,117.483945 C268.642272,126.325894 261.226444,132.873085 258.374202,135.56975 L258.387167,135.56975 Z M259.294698,117.276509 C255.379348,121.995672 249.674865,126.546294 242.310895,130.811692 C242.272001,130.811692 242.233107,130.798727 242.194213,130.785763 C237.17686,129.567077 231.472377,129.761548 225.23634,131.38214 C221.07466,132.458213 212.686476,136.736576 207.902489,142.518848 C206.787522,143.86718 206.165214,145.008077 206.541192,146.511986 C206.541192,146.511986 206.541192,146.537915 206.541192,146.55088 C205.128036,146.278621 202.198006,145.539631 202.198006,145.539631 C202.146147,145.526666 202.107252,145.461842 202.120217,145.409984 C202.48323,143.815321 203.040713,142.14287 203.831562,140.301878 C205.581801,136.28281 208.122889,132.497108 211.195532,129.320748 C213.205066,127.233425 219.791151,121.373365 228.762747,117.172791 C238.836346,112.453627 249.895265,109.925504 255.418242,107.060298 C267.825494,100.60386 272.440939,93.0454192 274.204143,90.6210138 C271.313007,99.8389403 266.295655,108.784607 259.294698,117.289474 L259.294698,117.276509 Z M229.229478,146.408268 C233.715276,146.667563 238.875241,146.991681 249.454464,152.864706 C260.941219,159.243356 267.799564,170.302275 286.274311,171.080159 C300.898532,171.702466 318.85469,162.004844 325.9464,158.180247 C323.301594,161.25289 320.11227,164.571862 318.647255,165.85537 C315.561648,168.539071 307.977278,175.954899 293.378986,181.724206 C284.524072,185.224684 274.63198,184.96539 266.464197,180.829639 C255.379348,175.202944 239.160465,155.146499 228.65903,149.286439 C225.858647,147.730671 222.630428,146.784245 220.270846,146.278621 C222.072944,146.30455 225.23634,146.187868 229.229478,146.408268 L229.229478,146.408268 Z M288.711682,166.659184 C268.370013,166.12763 263.780496,155.742877 249.765618,148.080719 C239.212324,142.311412 227.997828,142.272518 223.73243,142.272518 C221.645108,142.272518 219.700398,142.363271 217.976088,142.505883 C221.139483,140.016654 226.623566,137.747825 231.264941,137.151447 C237.086107,136.399493 247.69126,138.460886 255.962761,141.961364 C263.987932,145.358125 278.184317,149.429051 288.983941,151.425621 C304.774988,154.342686 319.37328,153.331437 326.763179,152.6832 C315.600542,158.78959 297.683278,166.905514 288.711682,166.672149 L288.711682,166.659184 Z M213.944055,193.04242 C206.917169,178.820105 196.156439,171.624678 195.624885,171.300559 C196.13051,170.872723 196.8695,170.172627 197.232512,169.485496 C198.554915,167.138879 199.721741,165.258993 201.121933,163.742119 C201.96464,162.847552 205.491048,159.113708 210.702872,158.530295 C218.429854,157.661658 234.532054,169.654038 236.191541,186.611911 C239.588301,221.448154 221.061695,249.814994 220.970942,249.983535 C222.28038,244.862465 225.482669,216.378942 213.944055,193.04242 Z M213.632902,36.7914345 C212.090098,17.4091558 196.324981,1.64403816 176.942702,0.127164176 C165.170723,-0.806296737 153.683968,3.43317158 145.386537,11.7306019 C137.089107,20.0280323 132.862603,31.5407169 133.783099,43.2997314 C135.312938,62.6820101 151.078056,78.4600925 170.460335,79.9899312 C171.523443,80.0806843 172.599516,80.1195785 173.662624,80.1195785 C184.293707,80.1195785 194.496953,75.9319692 202.042429,68.3864935 C210.352824,60.0760984 214.579327,48.5634138 213.632902,36.7914345 Z M203.883421,43.1441546 C202.48323,57.4183277 191.100193,68.8143297 176.826019,70.2274858 C167.685881,71.1350173 158.740214,67.9586572 152.283776,61.5022192 C145.827338,55.0457812 142.650978,46.1001142 143.55851,36.9470113 C144.971666,22.6728382 156.354703,11.2898009 170.628876,9.87664482 C171.65309,9.77292695 172.677304,9.72106801 173.688554,9.72106801 C181.739654,9.72106801 189.427742,12.8714986 195.14519,18.5889467 C201.601628,25.0453847 204.777988,33.978087 203.883421,43.1311899 L203.883421,43.1441546 Z M113.843337,84.9683894 C107.503582,84.1645758 101.306439,86.2907924 96.8206403,90.7636259 C92.3478067,95.2494242 90.2345549,101.446567 91.0254038,107.799288 C92.1663004,116.822743 99.5432346,124.199677 108.56669,125.340574 C109.448292,125.457257 110.329894,125.509115 111.198531,125.509115 C116.604826,125.509115 121.738861,123.408828 125.602352,119.545337 C130.08815,115.059539 132.188437,108.849431 131.384624,102.496711 C130.243727,93.4732555 122.853828,86.1092861 113.830372,84.9683894 L113.843337,84.9683894 Z M124.461455,107.436275 C123.553924,112.985182 119.055161,117.483945 113.506254,118.404441 C109.124174,119.117501 104.832846,117.756204 101.734275,114.657632 C98.6357032,111.559061 97.2614413,107.267733 97.9874664,102.885653 C98.8949979,97.3367465 103.406726,92.8250188 108.942667,91.9174873 C109.707587,91.78784 110.472506,91.735981 111.237425,91.735981 C114.802728,91.735981 118.160594,93.1102429 120.714647,95.6642957 C123.813218,98.7628673 125.18748,103.054195 124.461455,107.44924 L124.461455,107.436275 Z M167.478446,111.688708 C161.397985,112.686993 156.458421,117.626557 155.447172,123.707017 C154.656323,128.503969 156.147267,133.210168 159.544028,136.606929 C162.34441,139.407311 166.03936,140.924185 169.941745,140.924185 C170.771488,140.924185 171.601231,140.859362 172.443939,140.716749 C178.5244,139.718465 183.476928,134.778901 184.475213,128.69844 C185.266062,123.901488 183.762153,119.19529 180.365392,115.798529 C176.968631,112.401768 172.275397,110.910824 167.478446,111.688708 L167.478446,111.688708 Z M175.866629,132.12113 C173.87006,134.117699 171.108571,134.947442 168.295224,134.402924 C165.002181,133.767652 162.37034,131.122846 161.748033,127.829803 C161.216479,125.016456 162.059186,122.267932 164.055755,120.284327 C165.650418,118.689665 167.73774,117.846957 169.941745,117.846957 C170.486264,117.846957 171.043748,117.898816 171.601231,118.002534 C174.894274,118.624841 177.53908,121.256682 178.161387,124.56269 C178.692941,127.376037 177.863198,130.137526 175.866629,132.134095 L175.866629,132.12113 Z" fill="url(#linearGradient-1)"></path>
            <path d="M148.070237,313.757066 L176.398183,313.757066 L176.398183,322.650874 L156.445456,322.650874 L156.445456,344.431629 L176.398183,344.431629 L176.398183,353.325437 L156.445456,353.325437 L156.445456,384 L148.070237,384 L148.070237,313.770031 L148.070237,313.757066 Z M0,383.987035 L31.6080237,383.987035 L31.6080237,375.093227 L8.37521875,375.093227 L8.37521875,353.312472 L31.6080237,353.312472 L31.6080237,344.418664 L8.37521875,344.418664 L8.37521875,322.63791 L31.6080237,322.63791 L31.6080237,313.744102 L0,313.744102 L0,383.974071 L0,383.987035 Z M85.2172025,313.757066 L76.8419838,313.757066 L76.8419838,383.987035 L105.16993,383.987035 L105.16993,375.093227 L85.2172025,375.093227 L85.2172025,313.757066 Z M256.922152,358.731732 C256.922152,366.951374 254.847794,373.407812 250.763903,377.89361 C250.673149,377.997328 250.595361,378.075116 250.543502,378.13994 C250.491643,378.204763 245.422432,384 238.136251,384 L219.32442,384 L219.32442,313.770031 L236.865707,313.770031 C243.814805,313.770031 248.935875,317.95764 250.569432,324.997491 C252.462283,333.191204 248.780298,338.428957 247.289354,340.140302 C250.141595,342.201695 256.935116,347.633919 256.935116,358.744696 L256.922152,358.731732 Z M242.738732,329.470325 C242.738732,327.408932 242.375719,326.099494 241.468188,324.790056 C240.482868,323.389864 238.90117,322.650874 236.865707,322.650874 L227.699639,322.650874 L227.699639,336.32867 L238.214039,336.32867 C239.601266,336.32867 241.014422,335.356315 241.753412,333.904264 C242.453507,332.530002 242.738732,331.246494 242.738732,329.45736 L242.738732,329.470325 Z M243.931487,348.256226 C242.155319,346.480057 239.847596,345.274337 238.214039,345.274337 C236.580483,345.274337 229.877715,345.235443 227.699639,345.222478 L227.699639,375.093227 L238.214039,375.093227 C241.325576,375.093227 244.333394,372.020585 245.137208,370.957477 L245.214996,370.853759 C246.01881,369.790651 248.495074,366.536502 248.495074,360.093029 C248.495074,355.244218 246.965235,351.264044 243.944452,348.243261 L243.931487,348.256226 Z M323.2627,314.262691 L343.643263,384 L334.943926,384 L328.150405,360.806089 L310.881378,360.806089 L303.971175,384 L295.232943,384 L316.041343,313.770031 L323.133053,313.770031 L323.275665,314.262691 L323.2627,314.262691 Z M319.541821,331.40207 L313.513219,351.951175 L325.544493,351.951175 L319.528856,331.40207 L319.541821,331.40207 Z M419.538822,384 L409.906024,384 L398.250727,360.793125 L392.805538,360.793125 L392.805538,384 L384.430319,384 L384.430319,313.769981 L399.184188,313.769981 C399.456447,313.769981 406.133286,313.692243 412.019275,319.668985 C418.073807,325.827234 418.773902,332.698544 418.773902,337.326954 C418.773902,341.955365 417.542252,348.346979 414.067703,353.040213 C412.252641,355.503513 409.56894,357.6038 406.470369,359.003991 L419.525857,383.987035 L419.538822,384 Z M404.344152,324.284431 C401.725276,322.663839 400.078754,322.663839 398.34148,322.663839 L392.805538,322.663839 L392.805538,351.951175 L398.989717,351.951175 C398.989717,351.951175 404.136716,351.899316 406.794487,348.463662 L406.846346,348.398838 C406.846346,348.398838 410.424613,344.600171 410.411683,337.326954 C410.411683,328.71837 405.757308,325.166033 404.331188,324.284431 L404.344152,324.284431 Z" fill="url(#linearGradient-2)"></path>
        </g>
    </g>
</svg>