<svg xmlns="http://www.w3.org/2000/svg" width="350" height="327" viewBox="0 0 350 327">
  <defs>
    <style>
      .cls-1 {
        fill: #0546a3;
      }
    </style>
  </defs>
  <g id="组_8" data-name="组 8" transform="translate(0 0)">
    <path id="路径_1" data-name="路径 1" class="cls-1" d="M357.731-190.214V-298.843c0-10.3-4.776-23.584-27.531-28.363-8.915-1.873-29.456-2.6-62.784-2.231a4.129,4.129,0,0,0-.68.076,4.149,4.149,0,0,0-.682-.076c-33.326-.37-53.869.359-62.784,2.231-22.754,4.779-27.53,18.061-27.53,28.363l0,108.485c0,.129-.012.586.017,1.3a4.191,4.191,0,0,0,.069,1.149c.527,6.644,3.983,25.593,25.382,44.778q.076.073.157.141a115.016,115.016,0,0,0,10.5,8.322c33.343,23.435,46.3,29.959,51.805,31.776a4.207,4.207,0,0,0,2.334.7c.2,0,.435,0,.726-.022.29.02.528.022.727.022a4.235,4.235,0,0,0,2.346-.707c5.512-1.824,18.477-8.357,51.793-31.773C358.33-160.48,357.771-189.151,357.731-190.214Zm-15.013,21.3a29.112,29.112,0,0,0-18.194-13.324c-15.385-3.717-34.609,3.534-57.13,21.56-31.924,25.549-57.559,12.882-60.766,11.118q-3.018-2.719-5.514-5.4c.945.27,1.9.522,2.883.732a47.332,47.332,0,0,0,9.887,1.031c12.719,0,25.811-4.952,37.09-14.241,5.5-4.529,10.717-9.136,15.76-13.591,18.1-15.991,33.723-29.8,49.988-28.786,10.255.642,20.744,7.2,32.065,20.067a4.347,4.347,0,0,0,.493.457C349.181-186.812,348.384-178.973,342.718-168.918Zm-154.624-5.444c-.047-.1-.113-.175-.167-.265a43.984,43.984,0,0,1-3.71-14.256l.086-.865c.43-4.351.69-6.978,3.023-11.461,3.217-6.187,12.7-13.146,26.5-15.152-.663,7.006-3.24,20.475-13.159,28.595a4.185,4.185,0,0,0-1.156,4.979,4.233,4.233,0,0,0,4.535,2.407c.895-.151,22.017-3.425,27.563,12.723a4.18,4.18,0,0,0,1.031,1.629l-.007.22c-8.864,3.979-18.182,5.217-26.867,3.368C197.522-164.2,190.916-168.656,188.094-174.362ZM184.179-262.4l53.294-17.994v11.053H227.454A4.221,4.221,0,0,0,223.9-267.4a4.181,4.181,0,0,0-.275,4.023l10.607,22.843a4.247,4.247,0,0,0,.663,1.011L233.089-180.7c-5.612-5.406-13.176-7.683-19.931-8.295,9.728-13.85,9.353-31.276,9.328-32.154a4.183,4.183,0,0,0-1.369-2.972,4.2,4.2,0,0,0-3.1-1.1c-13.8.8-26.45,6.232-33.844,14.115Zm98.507,24.3-39.979,19.19.589-19.19Zm-40.27,28.654,45.672-21.921.371,12.067c-.022.008-.044.012-.066.022l-46.359,22.252Zm48.6-37.052H240.762l-6.709-14.444h63.841Zm-4.66-43.286v20.443H245.911v-20.443ZM241.742-187.558l47-22.556.02.665c-9.007,5.7-17.993,13.628-27.628,22.138-4.989,4.408-10.148,8.965-15.537,13.4-1.428,1.176-2.888,2.263-4.371,3.276ZM297.065-214l-.77-25.044A4.19,4.19,0,0,0,297.5-240.5l10.872-22.843a4.186,4.186,0,0,0-.246-4.045,4.227,4.227,0,0,0-3.566-1.954H294.8V-280.46l54.5,18.583v60.433c-10.81-10.576-21.348-16.087-32.044-16.754A41.509,41.509,0,0,0,297.065-214Zm52.229-56.758-54.5-18.583v-.442h54.5ZM247.013-298.18a19.963,19.963,0,0,1,19.051-13.977,19.966,19.966,0,0,1,19.051,13.977Zm-9.541,8.92-53.294,17.994v-18.514h53.294Zm111.82-9.583v.664H293.821c-.027-.121-.066-.235-.093-.356l46.832-15.335a4.178,4.178,0,0,0,.613-.27C346.617-310.558,349.292-305.49,349.292-298.843ZM265.96-321.038a4.155,4.155,0,0,0,.81-.069,4.166,4.166,0,0,0,.741.069c40.173-.45,55.319.868,60.948,2.051.145.03.278.067.424.1l-38.237,12.519a28.4,28.4,0,0,0-24.58-14.187,28.4,28.4,0,0,0-24.395,13.882l-36.914-12.254c.088-.019.169-.04.257-.059C210.642-320.17,225.781-321.487,265.96-321.038Zm-73.093,6.555a4.164,4.164,0,0,0,1.612,1l44.01,14.609c-.056.234-.13.462-.181.7H184.179v-.664A17.245,17.245,0,0,1,192.867-314.484ZM316.734-141.527c-36.541,25.682-47.3,30.051-49.988,30.79-2.527-.689-12.049-4.537-42.894-25.833,1.109.064,2.24.111,3.414.111,12.3,0,28.147-3.855,45.415-17.678,25.375-20.307,41.118-22.052,49.851-19.942a21.4,21.4,0,0,1,14.54,12.427,4.206,4.206,0,0,0,.388.68A93.071,93.071,0,0,1,316.734-141.527Z" transform="translate(-91.447 329.531)"/>
    <g id="组_4" data-name="组 4" transform="translate(0 260.993)">
      <g id="组_2" data-name="组 2" transform="translate(0.546 51.587)">
        <g id="组_1" data-name="组 1">
          <path id="路径_2" data-name="路径 2" class="cls-1" d="M199.957,142.392a7.264,7.264,0,0,1,.971-2.558,7.119,7.119,0,0,1,1.858-2.009,7.007,7.007,0,0,1,2.589-1.189,7.144,7.144,0,0,1,7.954,3.618H210.54a4.884,4.884,0,0,0-4.648-1.39,4.861,4.861,0,0,0,2.229,9.464,4.762,4.762,0,0,0,2.338-1.309,4.713,4.713,0,0,0,1.269-2.258h-6.375V142.5h8.714v-.019a7,7,0,0,1,0,2.239v.04a7.175,7.175,0,0,1-5.416,5.8,7.159,7.159,0,0,1-2.838.089,7.254,7.254,0,0,1-2.568-.968,7.169,7.169,0,0,1-3.289-7.286Z" transform="translate(-199.856 -136.356)"/>
          <path id="路径_3" data-name="路径 3" class="cls-1" d="M219.721,146.277v-9.9h2.269v9.854a2.829,2.829,0,0,0,.06.489,2.294,2.294,0,0,0,2.768,1.708,2.3,2.3,0,0,0,1.769-2.239v-9.812h2.268v9.865a4.6,4.6,0,0,1-3.517,4.4,4.577,4.577,0,0,1-5.5-3.4A4.842,4.842,0,0,1,219.721,146.277Z" transform="translate(-194.351 -136.373)"/>
          <path id="路径_4" data-name="路径 4" class="cls-1" d="M248.279,150.785l-2.429-.01-4.248-9.133-4.157,9.143h-2.4L241.6,136.4Z" transform="translate(-190.104 -136.364)"/>
          <path id="路径_5" data-name="路径 5" class="cls-1" d="M255.9,144.626v6.1h-2.3V136.42h7.655a3.881,3.881,0,0,1,2.908,1.2,3.981,3.981,0,0,1,1.2,2.908,4.091,4.091,0,0,1-2.769,3.888l3.658,6.335h-2.527l-3.538-6.124Zm0-5.907v3.618h5.356v.009a1.814,1.814,0,0,0,0-3.627Z" transform="translate(-184.787 -136.36)"/>
          <path id="路径_6" data-name="路径 6" class="cls-1" d="M272.146,140.437h2.289v8.034h3.648a4.886,4.886,0,1,0,0-9.773h-5.936V136.42h5.936a7.114,7.114,0,0,1,2.788.559,7.225,7.225,0,0,1,3.819,3.817,7.231,7.231,0,0,1,0,5.577,7.209,7.209,0,0,1-1.539,2.278,7.22,7.22,0,0,1-5.068,2.1h-5.936Z" transform="translate(-179.585 -136.36)"/>
          <path id="路径_7" data-name="路径 7" class="cls-1" d="M290.946,136.443h2.479v14.3h-2.479Z" transform="translate(-174.323 -136.354)"/>
          <path id="路径_8" data-name="路径 8" class="cls-1" d="M314.276,150.785l-2.428-.01-4.248-9.133-4.157,9.143h-2.4L307.6,136.4Z" transform="translate(-171.481 -136.364)"/>
          <path id="路径_9" data-name="路径 9" class="cls-1" d="M319.6,150.749l-.02-14.329,9.335,8.764V136.42h2.438v14.321l-9.344-8.774-.01,8.783Z" transform="translate(-166.286 -136.36)"/>
          <path id="路径_10" data-name="路径 10" class="cls-1" d="M354.557,144.637h-5.307v6.115h-2.3v-14.34h.209l7.415.01.04-.01a3.881,3.881,0,0,1,2.909,1.2,4.123,4.123,0,0,1-2.909,7.036h-.059Zm-5.307-5.926v3.628h5.365v.009a1.775,1.775,0,0,0,1.29-.53,1.824,1.824,0,0,0-1.29-3.107Z" transform="translate(-158.61 -136.362)"/>
          <path id="路径_11" data-name="路径 11" class="cls-1" d="M367.167,144.626v6.1h-2.3V136.42h7.655a3.881,3.881,0,0,1,2.908,1.2,3.98,3.98,0,0,1,1.2,2.908,4.091,4.091,0,0,1-2.769,3.888l3.658,6.335h-2.527l-3.538-6.124Zm0-5.907v3.618h5.356v.009a1.814,1.814,0,0,0,0-3.627Z" transform="translate(-153.585 -136.36)"/>
          <path id="路径_12" data-name="路径 12" class="cls-1" d="M397.569,141.944a7.028,7.028,0,0,1-.879,5.406,6.9,6.9,0,0,1-1.859,2.019,7.148,7.148,0,0,1-7.985.31,7.014,7.014,0,0,1-2.018-1.868,7.134,7.134,0,0,1-1.28-5.418,7.161,7.161,0,0,1,2.838-4.586,7.247,7.247,0,0,1,5.416-1.28,7.131,7.131,0,0,1,5.766,5.416Zm-5.845,6.4a4.886,4.886,0,1,0-3.678-.6A4.747,4.747,0,0,0,391.724,148.34Z" transform="translate(-148.372 -136.358)"/>
          <path id="路径_13" data-name="路径 13" class="cls-1" d="M403.444,142.392a7.286,7.286,0,0,1,.969-2.558,7.142,7.142,0,0,1,1.859-2.009,7.011,7.011,0,0,1,2.587-1.189,7.142,7.142,0,0,1,7.954,3.618h-2.787a4.862,4.862,0,0,0-8.264,4.457,4.872,4.872,0,0,0,5.845,3.617,4.762,4.762,0,0,0,2.338-1.309,4.711,4.711,0,0,0,1.268-2.258h-6.374V142.5h8.714v-.019a7,7,0,0,1,0,2.239v.04a7.174,7.174,0,0,1-5.418,5.8,7.152,7.152,0,0,1-2.836.089,7.245,7.245,0,0,1-2.568-.968,7.209,7.209,0,0,1-3.2-4.448A7.15,7.15,0,0,1,403.444,142.392Z" transform="translate(-142.793 -136.356)"/>
          <path id="路径_14" data-name="路径 14" class="cls-1" d="M425.492,144.626v6.1h-2.3V136.42h7.655a3.881,3.881,0,0,1,2.909,1.2,3.98,3.98,0,0,1,1.2,2.908,4.1,4.1,0,0,1-2.769,3.888l3.656,6.335h-2.526l-3.539-6.124Zm0-5.907v3.618h5.355v.009a1.825,1.825,0,0,0,1.819-1.819,1.722,1.722,0,0,0-.539-1.278,1.741,1.741,0,0,0-1.28-.53Z" transform="translate(-137.103 -136.36)"/>
          <path id="路径_15" data-name="路径 15" class="cls-1" d="M454.489,150.785l-2.429-.01-4.248-9.133-4.156,9.143h-2.4l6.556-14.381Z" transform="translate(-132.096 -136.364)"/>
          <path id="路径_16" data-name="路径 16" class="cls-1" d="M463.929,136.733l3.719,8.534,3.716-8.534.13-.321,3.978,14.111-2.23.01-2.1-7.636q-.669,1.51-1.718,3.917l-.411.94c-.153.367-.289.687-.41.96q-.479,1.1-.879,2.008h-.16q-.4-.91-.88-2.008-.18-.41-.419-.96l-.41-.94q-1.038-2.406-1.709-3.917l-2.11,7.636-2.217-.01,3.966-14.111Z" transform="translate(-126.951 -136.362)"/>
        </g>
      </g>
      <g id="组_3" data-name="组 3" transform="translate(0 0)">
        <path id="路径_17" data-name="路径 17" class="cls-1" d="M224.95,135.955H199.429V96.647h8.364v32.721H224.95Z" transform="translate(-199.429 -95.795)"/>
        <path id="路径_18" data-name="路径 18" class="cls-1" d="M231.516,96.647v39.308h-8.579V96.647Z" transform="translate(-192.914 -95.795)"/>
        <path id="路径_19" data-name="路径 19" class="cls-1" d="M261.947,121.69h-7.72V115.1h16.084v19.761a30.736,30.736,0,0,1-8.793,1.275,76.592,76.592,0,0,1-9.006.425q-18.232-.849-18.659-19.974.427-19.121,18.659-20.61,18.441,0,18.443,12.75h-9.008q0-6.584-7.935-6.586-11.153.427-11.152,14.447t11.152,14.238a51.861,51.861,0,0,0,7.506-.637.623.623,0,0,0,.429-.213Z" transform="translate(-189.889 -95.98)"/>
        <path id="路径_20" data-name="路径 20" class="cls-1" d="M276.977,135.955h-8.364V96.647h8.364v15.51H291.99V96.647h8.577v39.308H292.2V118.743H276.977Z" transform="translate(-180.016 -95.795)"/>
        <path id="路径_21" data-name="路径 21" class="cls-1" d="M296.992,103.233V96.647H329.16v6.586h-11.8v32.721h-8.577V103.233Z" transform="translate(-172.053 -95.795)"/>
        <path id="路径_22" data-name="路径 22" class="cls-1" d="M334.071,135.955h-8.365V96.647h8.365v15.51h15.011V96.647h8.578v39.308H349.3V118.743H334.071Z" transform="translate(-163.996 -95.795)"/>
        <path id="路径_23" data-name="路径 23" class="cls-1" d="M374.516,136.565q-18.657-.429-19.087-19.974.427-19.969,19.087-20.61,18.226.638,18.872,20.61Q392.746,136.142,374.516,136.565Zm0-34.421q-10.293,0-10.079,14.447-.216,14.452,10.079,14.238,9.862,0,9.866-14.238Q384.382,102.144,374.516,102.143Z" transform="translate(-155.646 -95.98)"/>
        <path id="路径_24" data-name="路径 24" class="cls-1" d="M416.138,96.647h8.579v24.646q-.64,14.663-17.157,15.087-16.944-.429-17.37-15.087V96.647h8.577v21.458q-.858,13.178,8.793,12.538,9.22.638,8.578-12.538Z" transform="translate(-145.897 -95.795)"/>
        <path id="路径_25" data-name="路径 25" class="cls-1" d="M453.026,108.092h-8.151q-.433-5.946-6.433-5.949-6.222.427-6.435,5.1-.431,4.464,7.293,5.525c.285.142.57.286.858.425q14.153,2.762,13.939,10.623-.431,12.326-16.941,12.75Q421.5,136.35,421.93,123.6h8.579q0,7.015,6.648,7.226,7.72-.211,7.935-5.1,0-3.824-7.506-5.524c-.573-.139-1.073-.282-1.5-.425q-13.3-2.759-13.082-10.836.644-11.9,16.513-12.962Q452.382,96.832,453.026,108.092Z" transform="translate(-136.91 -95.98)"/>
        <path id="路径_26" data-name="路径 26" class="cls-1" d="M451.481,135.955V96.647h26.593v6.586H460.058v9.137h16.729v6.586H460.058v10.412h18.659v6.586Z" transform="translate(-128.717 -95.795)"/>
      </g>
    </g>
  </g>
</svg>
