<?xml version="1.0" encoding="UTF-8"?>
<svg width="107px" height="94px" viewBox="0 0 107 94" version="1.1" xmlns="http://www.w3.org/2000/svg" xmlns:xlink="http://www.w3.org/1999/xlink">
    <title>love</title>
    <g id="未成年人保护计划" stroke="none" stroke-width="1" fill="none" fill-rule="evenodd" fill-opacity="0.28">
        <g id="未成年人保护计划-Moblie" transform="translate(-134.000000, -934.000000)" fill="#E43426" fill-rule="nonzero">
            <g id="倡议书" transform="translate(-156.646122, 545.000000)">
                <g id="编组-2" transform="translate(255.646122, 380.000000)">
                    <g id="慈善机构LOGO" transform="translate(30.400000, 9.600000)">
                        <path d="M110.417521,31.9885726 C110.417521,31.9885726 94.9850213,50.5532114 92.8538854,48.8568776 L92.4408193,48.5496052 C90.2304001,46.3448465 103.740279,26.9906443 103.740279,26.9906443 C105.036422,25.2648403 107.487728,24.9152512 109.215586,26.2097923 L109.634995,26.5178566 C110.465098,27.1396274 111.013902,28.0653395 111.160657,29.0913169 C111.307412,30.1172943 111.040095,31.1594805 110.417521,31.9885726 L110.417521,31.9885726 Z M64.8843131,27.4745192 C65.5637712,19.9194192 65.2299884,12.2273137 64.8216792,4.66667017 C64.6321921,0.527995902 58.2411631,0.683215985 58.2411631,4.81238698 C58.1639021,13.1061752 59.0113762,21.3827719 60.7679227,29.4892125 C62.2703418,35.9601477 64.4212984,32.634795 64.8843131,27.476895 L64.8843131,27.4745192 Z M34.7051144,18.4780898 C35.9474841,21.1865219 43.7140789,41.0808266 47.9541513,39.7812544 C48.2300573,39.603068 48.3505679,39.1524546 48.3505679,38.4824741 C48.3505679,31.762078 35.8618582,2.93707495 35.8618582,2.93707495 C33.4397525,-2.63421733 27.0883651,0.211220221 29.8133331,7.352136 C31.4108921,11.532783 33.0163795,14.7995322 34.7051144,18.4812576 L34.7051144,18.4780898 Z M32.0705294,48.6969059 C32.2780804,48.7061473 32.48118,48.6349298 32.6374052,48.4981291 C34.8827091,45.1228843 14.3411917,22.2849416 14.3411917,22.2849416 C11.5734107,19.0332392 6.94802139,23.4031597 9.51838688,26.4030254 C9.51759404,26.4006496 27.7860584,48.6992817 32.0705294,48.6992817 L32.0705294,48.6969059 Z M9.47478105,49.3621348 C6.31692611,47.2516168 2.84035219,52.1101638 6.12426762,54.322842 C6.12426762,54.322842 22.4225413,65.172409 25.5883246,63.8023542 C26.5175252,60.1032062 9.47795238,49.3668864 9.47795238,49.3668864 L9.47478105,49.3621348 Z M89.118055,58.6373267 C89.0046798,71.4841645 81.571075,82.2901749 75.2728075,92.8 C60.2882586,91.1234647 40.8479866,90.2539155 33.432617,74.9750325 C24.8081766,57.2062926 36.8544854,43.9951628 56.2456017,53.4532927 C58.7676043,41.8244575 65.0333657,35.5879363 74.3222004,36.6483429 C83.3549499,37.6857832 89.2155735,48.004751 89.1212263,58.6397026 L89.118055,58.6373267 Z M80.2137445,48.3975529 C72.8150243,41.6438954 62.3337684,45.4459955 59.7982876,60.7628916 C39.780833,51.6555907 31.3538081,68.3393739 42.6223475,78.7533744 C50.1502995,85.7089764 64.2111976,88.0705391 74.0074456,89.7613293 C77.000199,85.2037381 79.359302,80.2612029 81.0200559,75.0692732 C83.4532612,67.7074064 86.735591,54.3656067 80.2169158,48.3999287 L80.2137445,48.3975529 Z" id="love"></path>
                    </g>
                </g>
            </g>
        </g>
    </g>
</svg>