<?xml version="1.0" encoding="UTF-8"?>
<svg width="200px" height="60px" viewBox="0 0 200 60" version="1.1" xmlns="http://www.w3.org/2000/svg" xmlns:xlink="http://www.w3.org/1999/xlink">
    <title>elfbar_logo</title>
    <defs>
        <linearGradient x1="20.0141599%" y1="45.2474181%" x2="78.3862118%" y2="55.0200217%" id="linearGradient-1">
            <stop stop-color="#FF5EA7" offset="0%"></stop>
            <stop stop-color="#C85AFF" offset="60%"></stop>
            <stop stop-color="#5A74FF" offset="100%"></stop>
        </linearGradient>
        <linearGradient x1="12.4829462%" y1="18.9635919%" x2="71.8900967%" y2="81.112341%" id="linearGradient-2">
            <stop stop-color="#FF5EA7" offset="0%"></stop>
            <stop stop-color="#C85AFF" offset="60%"></stop>
            <stop stop-color="#5A74FF" offset="100%"></stop>
        </linearGradient>
    </defs>
    <g id="elfbar_logo" stroke="none" stroke-width="1" fill="none" fill-rule="evenodd">
        <g transform="translate(0.000000, 0.926336)" fill-rule="nonzero" id="形状">
            <path d="M113.607372,18.3661789 L122.623283,18.3661789 L122.623283,21.1962058 L116.271969,21.1962058 L116.271969,28.1265223 L122.623283,28.1265223 L122.623283,30.9565492 L116.271969,30.9565492 L116.271969,40.7168926 L113.607372,40.7168926 L113.607372,18.3661789 Z M66.4806293,40.7168926 L76.5422908,40.7168926 L76.5422908,37.8868657 L69.1452267,37.8868657 L69.1452267,30.9565492 L76.5422908,30.9565492 L76.5422908,28.1265223 L69.1452267,28.1265223 L69.1452267,21.1962058 L76.5422908,21.1962058 L76.5422908,18.3661789 L66.4806293,18.3661789 L66.4806293,40.7168926 L66.4806293,40.7168926 Z M93.5992589,18.3661789 L90.9346616,18.3661789 L90.9346616,40.7168926 L99.950572,40.7168926 L99.950572,37.8868657 L93.5992589,37.8868657 L93.5992589,18.3661789 L93.5992589,18.3661789 Z M148.247138,32.678789 C148.247138,35.2961208 147.588374,37.3492197 146.285616,38.7760495 C146.256075,38.8085446 146.232442,38.8351315 146.214718,38.8558102 C146.199947,38.8735348 144.587009,40.7198467 142.265087,40.7198467 L136.280083,40.7198467 L136.280083,18.3661789 L141.860376,18.3661789 C144.072996,18.3661789 145.703659,19.7014317 146.220626,21.9376847 C146.823262,24.5461542 145.650485,26.2122661 145.174875,26.7587744 C146.081783,27.4145844 148.244184,29.1427324 148.244184,32.678789 L148.247138,32.678789 Z M143.730321,23.3645146 C143.730321,22.7087046 143.618065,22.2921766 143.325609,21.8756486 C143.012474,21.4295797 142.507323,21.1962058 141.86333,21.1962058 L138.947634,21.1962058 L138.947634,25.5505479 L142.294628,25.5505479 C142.734789,25.5505479 143.186766,25.2403675 143.42014,24.779528 C143.641698,24.3423214 143.733275,23.9317016 143.733275,23.3645146 L143.730321,23.3645146 Z M144.111399,29.3436111 C143.544212,28.7764241 142.81455,28.3953453 142.291674,28.3953453 C141.768799,28.3953453 139.638893,28.3835289 138.94468,28.3805748 L138.94468,37.8868657 L142.291674,37.8868657 C143.281297,37.8868657 144.238426,36.912013 144.495432,36.5693375 L144.519065,36.5368424 C144.776072,36.197121 145.561862,35.1602322 145.561862,33.1130416 C145.561862,31.5710019 145.074436,30.3036933 144.114353,29.3436111 L144.111399,29.3436111 Z M169.360084,18.5227462 L175.847286,40.7168926 L173.079295,40.7168926 L170.916894,33.334599 L165.419316,33.334599 L163.218512,40.7168926 L160.435751,40.7168926 L167.055887,18.3661789 L169.312819,18.3661789 L169.360084,18.5227462 L169.360084,18.5227462 Z M168.17549,23.9760131 L166.25828,30.5163885 L170.089747,30.5163885 L168.17549,23.9760131 Z M200,40.7168926 L196.933645,40.7168926 L193.226251,33.3316449 L191.492195,33.3316449 L191.492195,40.7168926 L188.827597,40.7168926 L188.827597,18.366165 L193.524615,18.366165 C193.610284,18.366165 195.737235,18.3425461 197.60718,20.2449859 C199.536206,22.2065077 199.757764,24.3925411 199.757764,25.8636824 C199.757764,27.3348238 199.364869,29.3731521 198.260036,30.8649722 C197.681032,31.6478084 196.830252,32.3154348 195.843583,32.7644579 L200,40.7168926 L200,40.7168926 Z M195.16414,21.7131732 C194.32813,21.1962058 193.805254,21.1962058 193.252838,21.1962058 L191.492195,21.1962058 L191.492195,30.5193426 L193.462579,30.5193426 C193.477349,30.5193426 195.102104,30.501618 195.946976,29.4086013 L195.964701,29.3908767 C195.964701,29.3908767 197.102029,28.1826502 197.102029,25.8666365 C197.102029,23.1252326 195.622025,21.9967667 195.167094,21.7161273 L195.16414,21.7131732 Z" fill="url(#linearGradient-1)"></path>
            <path d="M56.4189678,32.0111626 L56.4189678,32.0111626 C56.2948956,31.6625789 56.0142562,31.4971494 55.6272692,31.5355527 L54.995092,31.606451 C54.188623,31.6980281 49.9701695,32.1293266 46.2155095,31.6448543 C44.8270829,31.4646543 42.6056004,31.0481263 39.8878293,30.0703195 C41.3471542,28.7468831 42.4460791,27.2964205 43.1550628,25.7573348 C43.816781,24.3186886 44.1889975,22.7234751 44.233309,21.1459862 C44.26285,20.0470613 44.1328696,18.8861004 43.8522302,17.6985525 C43.7606532,17.3174737 43.6247646,16.8743589 43.4977383,16.5405457 C43.3116301,16.0560734 43.0487153,15.8286078 42.6646824,15.8286078 L42.6617283,15.8286078 C42.2717872,15.8286078 42.0886331,16.0885685 41.9113871,16.5375916 C41.2910263,18.0884936 39.7578489,20.1209138 38.4964486,21.0721337 C37.3089007,21.9642716 33.4006276,23.258167 32.3637389,23.6244753 C30.6355909,24.2330197 28.0655247,25.9286726 26.9518293,27.1221286 C26.1394521,27.996542 25.4836421,28.9743488 25.0552977,29.9521556 C24.765796,30.6197819 24.585596,31.2371887 24.5028812,31.8339167 C24.5028812,31.8368708 24.4497074,32.2209037 24.6210451,32.5310841 C24.765796,32.7999071 25.0907469,32.9328415 25.1852781,32.9653366 C25.6254388,33.124858 26.0596914,33.2400678 26.5441637,33.3523236 C26.4496325,33.3907269 26.3639636,33.4291302 26.2842029,33.4675335 C25.7376946,33.7363565 25.2177732,34.1292517 24.7451173,34.6344026 C24.2901861,35.121829 23.959327,35.689016 23.6816416,36.1823505 C23.6196056,36.2916522 23.5103039,36.3979998 23.3685071,36.4777604 C23.1883071,36.584108 22.9726579,36.6402359 22.7835955,36.6372818 C22.5059102,36.6313736 22.0716576,36.6756851 21.4897001,36.8972425 C21.2238312,36.7849867 20.8752475,36.7229507 20.4912146,36.7199966 C20.8191196,36.0435079 21.1942902,35.2370388 21.0022738,34.7702912 C20.8663852,34.436478 20.5443884,34.2651402 19.9890178,34.2326451 C19.070293,34.1765173 18.0186337,34.1853795 16.5770333,34.6196321 C15.3038166,35.003665 14.2226163,35.5324487 13.1739112,36.0405538 C12.1813339,36.525026 11.1562615,37.0242688 9.96280546,37.4053476 C8.26124438,37.9518559 6.65421448,37.8691411 6.34994227,37.8455083 C5.2657879,37.7687017 4.11664336,37.4910164 2.83161025,36.9917737 C2.44757737,36.8440687 1.42841318,36.3359637 1.15959017,36.1941669 C0.740108096,35.9726095 0.406294899,36.0375997 0.137471881,36.3891375 C0.00453742224,36.5634293 -0.104764244,36.9651868 0.17292107,37.3108164 C0.524458862,37.7480231 3.70897768,40.4628401 5.09149606,41.2427223 C7.01166047,42.3298307 8.55370019,42.8615686 10.0927858,42.9679161 C11.3187369,43.053585 12.3881208,42.9620079 13.2743505,42.6931849 C13.1591407,43.1924277 13.0971046,43.650313 13.0852882,44.0875197 C13.0675636,44.8614937 13.227085,46.7314384 13.7440523,48.44777 C13.9301605,49.0651767 14.2846524,49.8480129 14.659823,50.6781148 C14.9700034,51.3634658 15.2920002,52.0724495 15.5519609,52.7578005 C15.9182692,53.7296991 16.0984693,54.71046 16.1427808,55.3071881 C16.181184,55.8034767 16.5209054,55.9984472 16.8251776,56.0161718 C17.2387515,56.0398046 17.4780335,55.8566505 17.6316467,55.395811 C17.8029844,54.8847519 17.968414,54.2702993 18.1427058,53.6233516 C18.384942,52.7253054 18.6596732,51.7090954 19.0023487,50.7637836 C19.5015914,49.3871735 20.0451457,48.149406 20.3937294,47.4374681 C20.8161655,47.7446944 22.1218773,48.7047766 22.7540545,49.2749177 C23.6905039,50.1168359 25.1498289,51.7150036 25.9444815,53.4904171 C26.8661605,55.5464701 27.5131082,57.451864 27.716941,58.287874 C27.7671607,58.4976151 27.8853246,58.9939037 28.3845674,59.0648021 C28.4288789,59.0707103 28.4702363,59.0736644 28.5115937,59.0736644 C28.8690396,59.0736644 29.0492397,58.8284742 29.2412561,58.5685134 C29.2737512,58.524202 29.3092004,58.4769364 29.3446496,58.4296708 C29.625289,58.0663166 31.5720403,55.1890241 33.1583915,51.549574 C34.5881755,48.2675699 34.9692543,44.9826117 35.0342444,42.5602505 C35.2144445,35.957839 31.2825386,34.0288123 31.0462107,33.8899696 C31.4184272,33.9845008 31.7670109,34.167655 32.0771913,34.4010288 C34.2070967,36.0198751 35.3444249,38.0670658 38.268983,40.1231187 C41.7164166,42.54548 45.3883618,41.2840797 46.4163882,40.9679911 C49.5772743,39.9990466 52.1443864,37.4673836 52.430934,37.1985606 C53.7100589,36.0139669 54.8916985,34.67576 55.9463119,33.216435 L56.3037579,32.7112841 C56.4721416,32.4631398 56.5046366,32.2563528 56.4130596,31.9993462 L56.4189678,32.0111626 Z M14.7070886,43.0181358 C15.2299641,40.6016828 17.3539614,39.3284661 18.5119682,38.8026364 C18.3731256,39.1216791 17.5164368,41.5056371 17.1383122,44.8319527 C16.7838203,47.9485272 16.6154366,51.1566788 16.6006661,51.4786756 C16.2432201,50.7047017 15.5726396,49.2128816 15.2063313,48.1228191 C14.6420984,46.4478449 14.4323574,44.3031689 14.7100427,43.0210899 L14.7070886,43.0181358 Z M17.2446597,36.731813 C16.148689,37.3521738 14.9375083,37.8720952 13.6436129,38.3802003 C11.3246451,39.2871087 8.83433961,39.6504629 6.67193907,39.4318595 C7.2273097,39.4436759 8.22284109,39.3402825 8.76934943,39.2309808 C11.0646844,38.7671872 12.4294782,37.9429936 13.7854097,37.2783213 C14.3082852,37.0213147 17.3244204,35.4408717 18.7866994,35.7037865 C18.6153617,35.9135275 17.9890927,36.3093768 17.2446597,36.731813 L17.2446597,36.731813 Z M12.6392192,39.653417 C13.8710786,39.2516595 15.0940756,38.7524167 16.2491283,38.1881838 C17.0910466,37.7746099 16.7188301,38.0316166 16.2254955,38.3831544 C15.2447346,39.089184 14.4441738,39.9990466 13.9094818,41.0152566 C13.2389014,41.2427223 12.6126323,41.384519 11.9922715,41.4465551 L11.9922715,41.4465551 C9.88599888,41.6769748 8.07513614,41.2574928 6.05748646,40.0522203 C7.31297857,40.279686 9.89190708,40.5514631 12.6392192,39.653417 Z M22.2075462,44.4154247 C22.7924578,43.6680376 23.2060317,42.7818079 23.4039563,41.8542208 C23.601881,40.9177714 23.5693859,39.9754138 23.3094252,39.1275873 C23.1971694,38.761279 23.0494644,38.4274658 22.8633562,38.1320559 C23.155812,38.0847903 23.631422,37.984351 23.929786,37.8543706 C25.0612059,38.8055905 26.9075178,40.10244 28.2309542,43.5675983 C30.5558302,49.6589506 29.0403774,55.7384865 28.7567839,56.5124605 C28.3520723,55.2215192 27.8941869,54.0694205 27.3654032,52.9970826 C26.7893539,51.8390757 26.136498,50.7962787 25.4186519,49.8982326 C24.8366944,49.165616 24.1897467,48.5009437 23.4925793,47.9219403 C23.0435562,47.5526779 21.5074247,46.4153498 21.0938508,46.1110776 C21.4956083,45.4109561 21.8501002,44.870356 22.2075462,44.4183788 L22.2075462,44.4154247 Z M21.9416773,41.5410863 C21.7910182,42.247116 21.4749296,42.9236047 21.0318148,43.4966999 C20.5000769,44.1731886 19.994926,44.961933 19.4868209,45.9072447 C18.7601126,47.2543139 18.1131649,48.7697668 17.5164368,50.5156393 C17.640509,48.300065 17.6907287,47.1125172 18.0599911,44.5926706 C18.5533256,41.2249977 19.0939257,39.2575677 19.7999554,38.3033937 C20.0953653,38.2000002 20.6330114,38.0818363 21.0790803,38.3742921 C21.5635526,38.6815184 21.7703395,39.2014398 21.8825953,39.5677481 C22.0687035,40.1674302 22.0893822,40.8527812 21.9416773,41.5410863 Z M38.2985239,29.5208571 C37.3857073,29.1988603 36.6530907,28.9654865 35.9795562,28.7793782 C36.8805564,28.2033289 38.5112191,27.1428073 40.1389277,24.8533805 C41.4180526,23.0572883 42.3160987,20.933291 42.6883152,19.7368809 C42.8271578,21.2405173 42.6469578,23.52699 41.5568952,25.5800889 C40.534777,27.5061615 38.9188848,28.9300373 38.2985239,29.5208571 Z M38.4964486,25.5387315 C37.645668,26.566758 36.4019923,27.5563812 34.7979165,28.4839683 C34.7890542,28.4839683 34.783146,28.4810142 34.7742837,28.4780601 C33.6812671,28.2121912 32.4405454,28.2565027 31.0816599,28.6080405 C30.1747514,28.8414143 28.3491182,29.7749096 27.3063212,31.0333558 C27.0640851,31.3287657 26.9281965,31.5769101 27.0109113,31.9048151 C27.0109113,31.9048151 27.0109113,31.9107232 27.0109113,31.9136773 C26.703685,31.8545954 26.0655996,31.6921199 26.0655996,31.6921199 C26.0537832,31.6891658 26.0449209,31.6743953 26.047875,31.6625789 C26.1276357,31.3139952 26.2487537,30.950641 26.4200915,30.5518377 C26.8011703,29.6774243 27.3535868,28.8502766 28.0241673,28.1619715 C28.461374,27.7070402 29.894112,26.4308694 31.8497256,25.5150987 C34.0446213,24.4870722 36.4492579,23.9376098 37.6545303,23.3113408 C40.357531,21.9051896 41.3619247,20.2597564 41.7459576,19.7309727 C41.1137804,21.736806 40.0237178,23.6865114 38.4964486,25.5387315 Z M31.950165,31.8841364 C32.9279718,31.9402642 34.0505294,32.0111626 36.3547267,33.2902875 C38.8568487,34.6787141 40.3486687,37.0863049 44.3721517,37.2576426 C47.5566705,37.3905771 51.4678977,35.2813503 53.0128915,34.4482944 C52.4368422,35.1188749 51.7426289,35.839675 51.4235862,36.1173604 C50.7530057,36.702272 49.1016643,38.3152101 45.9200996,39.5736563 C43.9910729,40.3358139 41.8375347,40.279686 40.059167,39.3786858 C37.645668,38.1527346 34.1125655,33.7865762 31.8260928,32.5104054 C31.2175484,32.170684 30.5115187,31.963897 30.0004596,31.8545954 C30.3933548,31.8605036 31.0816599,31.8339167 31.9531191,31.8841364 L31.950165,31.8841364 Z M44.9038895,36.2916522 C40.4727409,36.1764423 39.4742554,33.9136024 36.422671,32.2474905 C34.1243819,30.9919984 31.6842961,30.9831361 30.7537549,30.9831361 C30.2988236,30.9831361 29.8763874,31.0038148 29.4982627,31.0333558 C30.1865678,30.4927557 31.382978,29.9994211 32.3932799,29.8664867 C33.6605884,29.7010571 35.9706939,30.1500802 37.7697402,30.9122378 C39.5185669,31.6537166 42.6085545,32.5369923 44.9600174,32.9712448 C48.3985887,33.6063761 51.5771994,33.3877728 53.1871834,33.245976 C50.7559598,34.5753206 46.8535949,36.3418719 44.9009354,36.2916522 L44.9038895,36.2916522 Z M28.6208953,42.0373749 C27.090672,38.9414791 24.7480714,37.3728525 24.6328615,37.3019541 C24.7421632,37.2074229 24.9046387,37.0567639 24.9843993,36.9061048 C25.273901,36.3950457 25.5279536,35.98738 25.8322258,35.6535668 C26.0153799,35.4585963 26.7834457,34.646219 27.9207738,34.5191927 C29.6046103,34.3301304 33.1111259,36.941554 33.471526,40.6341779 C34.2100508,48.2203043 30.1777055,54.3973255 30.1570268,54.4357288 C30.4406204,53.3190794 31.1377877,47.1184254 28.6268035,42.0344208 L28.6208953,42.0373749 Z M28.552951,8.0120616 C28.2161837,3.790654 24.7835206,0.357990855 20.562113,0.0271317569 C18.0009091,-0.173746981 15.4958331,0.747931935 13.6908785,2.55584058 C11.8829699,4.36374922 10.9642451,6.86882525 11.1651238,9.43002916 C11.498937,13.6514368 14.9316001,17.0840999 19.1500536,17.4179131 C19.3834275,17.4356377 19.6138472,17.4445 19.847221,17.4445 C22.1632347,17.4445 24.3817631,16.5346375 26.0271963,14.8892043 C27.835105,13.0812956 28.7567839,10.5732655 28.552951,8.0091075 L28.552951,8.0120616 Z M26.4289538,9.39753407 C26.1217275,12.5052463 23.6432384,14.9866896 20.5355261,15.29687 C18.5444633,15.4947946 16.597712,14.8035354 15.1915609,13.3973842 C13.7854097,11.9912331 13.0941505,10.0415277 13.2920751,8.05046489 C13.6022555,4.94275264 16.0807447,2.46426351 19.1855028,2.1570372 C19.4070603,2.13340441 19.6315718,2.12454211 19.8531292,2.12454211 C21.60491,2.12454211 23.2798842,2.8098931 24.526514,4.05652292 C25.9326651,5.45971999 26.6239243,7.40942539 26.4289538,9.40048817 L26.4289538,9.39753407 Z M6.81964403,18.5050216 C5.43712565,18.3307297 4.08710237,18.7915692 3.11224967,19.7664219 C2.13739697,20.7412746 1.67655751,22.094252 1.85084935,23.4738162 C2.09899368,25.4382921 3.70602358,27.045322 5.67049948,27.2934664 C5.86251592,27.3170992 6.05453236,27.3289156 6.2435947,27.3289156 C7.41932614,27.3289156 8.5389297,26.8710302 9.37789384,26.029112 C10.3527465,25.0513052 10.813586,23.6983278 10.6363401,22.3158094 C10.3852416,20.3513335 8.77821172,18.7472577 6.81373583,18.4991134 L6.81964403,18.5050216 Z M9.12974952,23.3970097 C8.93182488,24.6052362 7.95106398,25.5859971 6.74283745,25.7839217 C5.78866344,25.940489 4.85221403,25.6450791 4.17867944,24.9685904 C3.50219075,24.2950558 3.20678084,23.3586064 3.36334809,22.4044324 C3.56127273,21.1962058 4.54203363,20.2154449 5.75026015,20.0145662 C5.9186438,19.9879793 6.08407335,19.9732088 6.2495029,19.9732088 C7.02347686,19.9732088 7.75609344,20.2715728 8.31441817,20.8298976 C8.99090686,21.5063862 9.28631677,22.4398816 9.12974952,23.3970097 Z M18.4971977,24.3245968 C17.1737613,24.5432001 16.0955152,25.6184922 15.8798659,26.9419286 C15.7085282,27.9876797 16.0334791,29.012752 16.7720039,29.7512768 C17.3835024,30.3627753 18.1870173,30.6906803 19.0348438,30.6906803 C19.2150438,30.6906803 19.3952439,30.6759098 19.578398,30.6463688 C20.9018344,30.4307196 21.9800806,29.3524734 22.1986839,28.029037 C22.3700216,26.983286 22.0450707,25.9582136 21.3035919,25.2196888 C20.5650671,24.481164 19.5399947,24.1562131 18.4971977,24.3245968 L18.4971977,24.3245968 Z M20.3257851,28.7764241 C19.8915325,29.2106767 19.2918504,29.3938308 18.6773978,29.2727128 C17.9595517,29.1338701 17.3864565,28.5607749 17.2505679,27.8399747 C17.1353581,27.2284762 17.3185122,26.6287941 17.7527648,26.1945415 C18.1013485,25.8489119 18.5533256,25.6628037 19.0348438,25.6628037 C19.1530077,25.6628037 19.2741258,25.6746201 19.3952439,25.6982529 C20.1130899,25.8341414 20.6861852,26.4072366 20.8250278,27.1250827 C20.9431918,27.7395353 20.7600376,28.3392174 20.3257851,28.77347 L20.3257851,28.7764241 Z" fill="url(#linearGradient-2)"></path>
        </g>
    </g>
</svg>