<?xml version="1.0" encoding="UTF-8"?>
<svg width="13px" height="13px" viewBox="0 0 13 13" version="1.1" xmlns="http://www.w3.org/2000/svg" xmlns:xlink="http://www.w3.org/1999/xlink">
    <title>icons/yellow_warning</title>
    <g id="Home" stroke="none" stroke-width="1" fill="none" fill-rule="evenodd">
        <g id="Home/pc" transform="translate(-240.000000, -5068.000000)">
            <g id="footer" transform="translate(0.000000, 4536.000000)">
                <g id="warning" transform="translate(240.000000, 529.000000)">
                    <g id="icons/yellow_warning" transform="translate(0.000000, 3.541667)">
                        <g id="警告" transform="translate(5.912764, 8.865252)"></g>
                        <path d="M11.3170998,11.8200557 L1.69034978,11.8200557 C1.09208582,11.8114299 0.54563054,11.478805 0.263179657,10.9513435 C-0.0929350474,10.3264433 -0.0872983556,9.55872606 0.277953679,8.93912223 L5.09132869,0.840005653 C5.37260632,0.322320535 5.91456014,4.4408921e-16 6.50372479,4.4408921e-16 C7.09288944,4.4408921e-16 7.63484326,0.322320535 7.91612089,0.840005653 L12.7294959,8.93912223 C13.090168,9.56137727 13.090168,10.3290884 12.7294959,10.9513435 C12.4496149,11.4742508 11.9100344,11.8061267 11.3170998,11.8200557 Z" id="形状" fill="#000000" fill-rule="nonzero"></path>
                        <path d="M5.85366801,1.2920906 L1.040293,9.39120718 C0.840930604,9.73893407 0.840930604,10.1663056 1.040293,10.5140325 C1.16607202,10.7603333 1.41410615,10.9204281 1.69034978,10.9336146 L11.3170998,10.9336146 C11.5954943,10.9225138 11.8462557,10.7621168 11.9730662,10.5140325 C12.1724286,10.1663056 12.1724286,9.73893407 11.9730662,9.39120718 L7.15378157,1.2920906 C7.03219634,1.0440019 6.78000539,0.886748572 6.50372479,0.886748572 C6.22744419,0.886748572 5.97525324,1.0440019 5.85366801,1.2920906 Z" id="路径" fill="#FFFC09" fill-rule="nonzero"></path>
                        <path d="M5.61728372,3.93663979 L6.20824444,8.02904273 C6.23888498,8.16348865 6.35844454,8.25886593 6.49633779,8.25886593 C6.63423103,8.25886593 6.75379059,8.16348865 6.78443113,8.02904273 L7.37539184,3.93663979 C7.40206018,3.68819182 7.32263128,3.44002744 7.15665819,3.25323739 C6.9906851,3.06644733 6.75358495,2.95838241 6.50372479,2.95564501 C6.24942087,2.94830511 6.00468062,3.05281011 5.83411281,3.24157181 C5.663545,3.43033352 5.58429492,3.68437783 5.61728372,3.93663979 L5.61728372,3.93663979 Z" id="路径" fill="#000000" fill-rule="nonzero"></path>
                        <path d="M5.91276407,9.45621285 C5.91276407,9.78259145 6.1773462,10.0471736 6.50372479,10.0471736 C6.83010338,10.0471736 7.09468551,9.78259145 7.09468551,9.45621285 C7.09468551,9.12983426 6.83010338,8.86525214 6.50372479,8.86525214 C6.1773462,8.86525214 5.91276407,9.12983426 5.91276407,9.45621285 L5.91276407,9.45621285 Z" id="路径" fill="#000000" fill-rule="nonzero"></path>
                    </g>
                </g>
            </g>
        </g>
    </g>
</svg>